<svg width="74" height="74" viewBox="0 0 74 74" fill="none" xmlns="http://www.w3.org/2000/svg">
<path d="M13.1425 43.0665H35.2824V65.2063H25.4428C18.6498 65.2063 13.1425 59.699 13.1425 52.906V43.0665ZM67.2617 33.2269C67.2617 35.9437 65.0593 38.1473 62.3414 38.1473H40.2015V28.2017C39.3748 28.2651 38.5514 28.3077 37.742 28.3077C36.9325 28.3077 36.108 28.2662 35.2824 28.2017V38.1473H13.1425C10.4258 38.1473 8.22217 35.9448 8.22217 33.2269C8.22217 27.7923 12.6282 23.3874 18.0617 23.3874H22.3375C19.5216 20.9047 17.9545 17.3001 18.0617 13.5478C18.0617 12.1895 19.1629 11.0882 20.5213 11.0882C21.8797 11.0882 22.9809 12.1895 22.9809 13.5478C22.9809 19.9984 28.8134 22.232 33.2494 22.9965C31.612 20.0941 30.6272 16.87 30.3609 13.5478C30.362 9.47043 33.6657 6.16675 37.742 6.16675C41.8182 6.16675 45.1219 9.47043 45.1219 13.5467C44.8567 16.8688 43.8708 20.0929 42.2333 22.9953C46.6682 22.2308 52.5018 19.9961 52.5018 13.5467C52.5018 12.1883 53.6031 11.0871 54.9614 11.0871C56.3198 11.0871 57.421 12.1883 57.421 13.5467C57.5283 17.2989 55.9612 20.9047 53.1453 23.3862H57.421C62.8557 23.3862 67.2606 27.7923 67.2606 33.2258L67.2617 33.2269ZM35.2824 13.5467C35.5799 16.1608 36.417 18.685 37.742 20.9589C39.0669 18.6861 39.9052 16.162 40.2015 13.5467C40.2015 12.1883 39.1003 11.0871 37.742 11.0871C36.3836 11.0871 35.2824 12.1883 35.2824 13.5467ZM40.2015 65.2063H50.0411C56.8341 65.2063 62.3414 59.699 62.3414 52.906V43.0665H40.2015V65.2063Z" fill="#FFCC49"/>
<path d="M62.4183 37.9929H13.0649V43.1819H62.4183V37.9929Z" fill="#FFDF8B"/>
<path d="M40.3367 65.2638V27.9604H35.1476V65.2638H40.3367Z" fill="#FFDF8B"/>
</svg>
