<svg width="74" height="74" viewBox="0 0 74 74" fill="none" xmlns="http://www.w3.org/2000/svg">
<path d="M51.2222 8.56585L51.1633 8.56329L51.1043 8.56421C47.8596 8.61467 44.6858 9.52042 41.9032 11.19C40.0236 12.3177 38.3675 13.767 37.0063 15.4639C35.6451 13.767 33.989 12.3177 32.1094 11.19C29.3268 9.52042 26.1529 8.61467 22.9083 8.56421L22.8493 8.56329L22.7904 8.56585C17.6511 8.78914 12.809 11.0374 9.32201 14.8194C5.84356 18.5922 3.99567 23.5853 4.17922 28.7127C4.19233 35.1989 7.58017 41.7294 12.0242 47.567C16.5126 53.4627 22.2875 58.9222 27.499 63.2938C30.1617 65.5314 33.5283 66.7581 37.0063 66.7581C40.4837 66.7581 43.8497 65.5318 46.5122 63.295C51.7241 58.9232 57.4996 53.4632 61.9883 47.567C66.4324 41.7294 69.8203 35.1989 69.8334 28.7126C70.0169 23.5853 68.169 18.5922 64.6906 14.8194C61.2036 11.0374 56.3615 8.78914 51.2222 8.56585Z" fill="#FF51C4" stroke="#883FFF" stroke-width="4"/>
<path d="M56.9484 29.9751C54.7711 36.4669 47.4562 46.3942 40.6639 51.7661" stroke="#FF91DA" stroke-width="4.5" stroke-linecap="round" stroke-linejoin="round"/>
</svg>
