<svg width="40" height="40" viewBox="0 0 40 40" fill="none" xmlns="http://www.w3.org/2000/svg">
<path fill-rule="evenodd" clip-rule="evenodd" d="M30 20C30 25.5228 25.5228 30 20 30C14.4772 30 10 25.5228 10 20C10 14.4772 14.4772 10 20 10C25.5228 10 30 14.4772 30 20ZM15.9897 16.1637C16.3749 15.7784 16.9996 15.7784 17.3848 16.1637L19.8266 18.6055L22.2685 16.1636C22.6537 15.7784 23.2784 15.7784 23.6636 16.1636C24.0489 16.5489 24.0489 17.1735 23.6636 17.5588L21.2218 20.0006L23.663 22.4419C24.0483 22.8271 24.0483 23.4517 23.663 23.837C23.2778 24.2223 22.6531 24.2223 22.2679 23.837L19.8266 21.3958L17.3854 23.837C17.0002 24.2222 16.3755 24.2222 15.9903 23.837C15.605 23.4517 15.605 22.8271 15.9903 22.4418L18.4315 20.0006L15.9897 17.5588C15.6044 17.1736 15.6044 16.5489 15.9897 16.1637Z" fill="#ABADB8"/>
</svg>
