<svg width="74" height="74" viewBox="0 0 74 74" fill="none" xmlns="http://www.w3.org/2000/svg">
<path d="M51.1354 10.5637C48.2426 10.6087 45.413 11.4162 42.9322 12.9047C40.4514 14.3932 38.4073 16.5099 37.0063 19.0412C35.6053 16.5099 33.5612 14.3932 31.0804 12.9047C28.5996 11.4162 25.7699 10.6087 22.8772 10.5637C18.2658 10.7641 13.9212 12.7814 10.7924 16.1749C7.66366 19.5683 6.00514 24.0622 6.17918 28.6746C6.17918 40.3556 18.4741 53.1128 28.7857 61.7624C31.088 63.6971 33.999 64.7578 37.0063 64.7578C40.0136 64.7578 42.9245 63.6971 45.2269 61.7624C55.5385 53.1128 67.8334 40.3556 67.8334 28.6746C68.0074 24.0622 66.3489 19.5683 63.2202 16.1749C60.0914 12.7814 55.7468 10.7641 51.1354 10.5637Z" fill="#FF51C4"/>
<path d="M56.9484 29.9748C54.7711 36.4666 47.4562 46.394 40.6639 51.7659" stroke="#FF91DA" stroke-width="4.5" stroke-linecap="round" stroke-linejoin="round"/>
</svg>
