<svg width="74" height="74" viewBox="0 0 74 74" fill="none" xmlns="http://www.w3.org/2000/svg">
<mask id="path-1-outside-1_514_2916" maskUnits="userSpaceOnUse" x="4.22217" y="4.22217" width="66" height="66" fill="black">
<rect fill="white" x="4.22217" y="4.22217" width="66" height="66"/>
<path fill-rule="evenodd" clip-rule="evenodd" d="M24.4424 65.7778C29.5048 65.7778 34.0255 63.4586 37.0001 59.8247C39.9747 63.4586 44.4954 65.7778 49.5578 65.7778C58.516 65.7778 65.778 58.5158 65.778 49.5576C65.778 44.4952 63.4589 39.9746 59.8251 37C63.4589 34.0254 65.778 29.5047 65.778 24.4424C65.778 15.4842 58.516 8.22217 49.5578 8.22217C44.4954 8.22217 39.9747 10.5414 37.0001 14.1752C34.0255 10.5414 29.5048 8.22217 24.4424 8.22217C15.4842 8.22217 8.22217 15.4842 8.22217 24.4424C8.22217 29.5047 10.5413 34.0254 14.1751 37C10.5413 39.9746 8.22217 44.4952 8.22217 49.5576C8.22217 58.5158 15.4842 65.7778 24.4424 65.7778Z"/>
</mask>
<path fill-rule="evenodd" clip-rule="evenodd" d="M24.4424 65.7778C29.5048 65.7778 34.0255 63.4586 37.0001 59.8247C39.9747 63.4586 44.4954 65.7778 49.5578 65.7778C58.516 65.7778 65.778 58.5158 65.778 49.5576C65.778 44.4952 63.4589 39.9746 59.8251 37C63.4589 34.0254 65.778 29.5047 65.778 24.4424C65.778 15.4842 58.516 8.22217 49.5578 8.22217C44.4954 8.22217 39.9747 10.5414 37.0001 14.1752C34.0255 10.5414 29.5048 8.22217 24.4424 8.22217C15.4842 8.22217 8.22217 15.4842 8.22217 24.4424C8.22217 29.5047 10.5413 34.0254 14.1751 37C10.5413 39.9746 8.22217 44.4952 8.22217 49.5576C8.22217 58.5158 15.4842 65.7778 24.4424 65.7778Z" fill="#59ED79"/>
<path d="M37.0001 59.8247L40.0954 57.2911L37.0001 53.5098L33.9049 57.2911L37.0001 59.8247ZM59.8251 37L57.2914 33.9048L53.5102 37L57.2914 40.0952L59.8251 37ZM37.0001 14.1752L33.9049 16.7089L37.0001 20.4902L40.0954 16.7089L37.0001 14.1752ZM14.1751 37L16.7088 40.0952L20.49 37L16.7088 33.9048L14.1751 37ZM33.9049 57.2911C31.6574 60.0367 28.2548 61.7778 24.4424 61.7778V69.7778C30.7548 69.7778 36.3937 66.8806 40.0954 62.3584L33.9049 57.2911ZM49.5578 61.7778C45.7454 61.7778 42.3428 60.0367 40.0954 57.2911L33.9049 62.3584C37.6065 66.8806 43.2455 69.7778 49.5578 69.7778V61.7778ZM61.778 49.5576C61.778 56.3066 56.3069 61.7778 49.5578 61.7778V69.7778C60.7252 69.7778 69.778 60.7249 69.778 49.5576H61.778ZM57.2914 40.0952C60.037 42.3427 61.778 45.7452 61.778 49.5576H69.778C69.778 43.2453 66.8809 37.6065 62.3588 33.9048L57.2914 40.0952ZM61.778 24.4424C61.778 28.2548 60.037 31.6573 57.2914 33.9048L62.3588 40.0952C66.8809 36.3935 69.778 30.7547 69.778 24.4424H61.778ZM49.5578 12.2222C56.3069 12.2222 61.778 17.6933 61.778 24.4424H69.778C69.778 13.2751 60.7252 4.22217 49.5578 4.22217V12.2222ZM40.0954 16.7089C42.3428 13.9633 45.7454 12.2222 49.5578 12.2222V4.22217C43.2455 4.22217 37.6065 7.11942 33.9049 11.6416L40.0954 16.7089ZM24.4424 12.2222C28.2548 12.2222 31.6574 13.9633 33.9049 16.7089L40.0954 11.6416C36.3937 7.11942 30.7548 4.22217 24.4424 4.22217V12.2222ZM12.2222 24.4424C12.2222 17.6933 17.6933 12.2222 24.4424 12.2222V4.22217C13.2751 4.22217 4.22217 13.2751 4.22217 24.4424H12.2222ZM16.7088 33.9048C13.9633 31.6573 12.2222 28.2548 12.2222 24.4424H4.22217C4.22217 30.7547 7.11934 36.3935 11.6414 40.0952L16.7088 33.9048ZM12.2222 49.5576C12.2222 45.7452 13.9633 42.3427 16.7088 40.0952L11.6414 33.9048C7.11934 37.6065 4.22217 43.2453 4.22217 49.5576H12.2222ZM24.4424 61.7778C17.6933 61.7778 12.2222 56.3066 12.2222 49.5576H4.22217C4.22217 60.7249 13.2751 69.7778 24.4424 69.7778V61.7778Z" fill="#883FFF" mask="url(#path-1-outside-1_514_2916)"/>
<circle cx="24.4424" cy="24.4424" r="16.2202" fill="#59ED79"/>
<circle cx="24.4424" cy="49.5576" r="16.2202" fill="#59ED79"/>
<circle cx="49.5578" cy="24.4424" r="16.2202" fill="#59ED79"/>
<circle cx="49.5578" cy="49.5576" r="16.2202" fill="#59ED79"/>
<path d="M23.9189 23.9194L27.9497 27.9502" stroke="#9AFFA4" stroke-width="5" stroke-linecap="round"/>
<path d="M47.0962 47.0972L51.127 51.1279" stroke="#9AFFA4" stroke-width="5" stroke-linecap="round"/>
<path d="M23.9189 51.1274L27.9497 47.0967" stroke="#9AFFA4" stroke-width="5" stroke-linecap="round"/>
<path d="M47.0962 27.9492L51.127 23.9184" stroke="#9AFFA4" stroke-width="5" stroke-linecap="round"/>
<circle cx="38.5416" cy="38.5419" r="6.68056" fill="#59ED79"/>
</svg>
