<svg width="44" height="44" viewBox="0 0 44 44" fill="none" xmlns="http://www.w3.org/2000/svg">
<circle cx="22" cy="22" r="22" fill="#F3EFFF"/>
<g clip-path="url(#clip0_325_2443)">
<path fill-rule="evenodd" clip-rule="evenodd" d="M22.6461 14.2922C23.5891 13.3814 24.8521 12.8775 26.1631 12.8889C27.4741 12.9003 28.7282 13.4261 29.6552 14.3531C30.5823 15.2802 31.1081 16.5342 31.1195 17.8452C31.1309 19.1562 30.6269 20.4192 29.7161 21.3622L29.706 21.3726L27.2061 23.8725C26.6992 24.3795 26.0892 24.7717 25.4174 25.0222C24.7457 25.2728 24.0279 25.376 23.3127 25.3248C22.5976 25.2736 21.9018 25.0692 21.2726 24.7254C20.6434 24.3816 20.0955 23.9066 19.6661 23.3325C19.3904 22.9639 19.4657 22.4417 19.8342 22.166C20.2028 21.8903 20.725 21.9656 21.0007 22.3342C21.287 22.7169 21.6523 23.0336 22.0717 23.2628C22.4912 23.492 22.955 23.6282 23.4318 23.6624C23.9085 23.6965 24.3871 23.6277 24.8349 23.4607C25.2828 23.2936 25.6894 23.0322 26.0274 22.6942L26.0275 22.694L28.5221 20.1995C29.1263 19.5713 29.4605 18.7314 29.4529 17.8597C29.4453 16.9857 29.0947 16.1497 28.4767 15.5316C27.8587 14.9136 27.0226 14.5631 26.1486 14.5555C25.2766 14.5479 24.4363 14.8824 23.8081 15.4871L22.3793 16.9076C22.0529 17.2321 21.5252 17.2306 21.2007 16.9042C20.8763 16.5778 20.8778 16.0502 21.2042 15.7257L22.6375 14.3007L22.6461 14.2922Z" fill="#883FFF"/>
<path fill-rule="evenodd" clip-rule="evenodd" d="M18.5826 18.9777C19.2544 18.7272 19.9722 18.624 20.6873 18.6752C21.4025 18.7264 22.0982 18.9308 22.7274 19.2746C23.3566 19.6183 23.9045 20.0934 24.334 20.6675C24.6096 21.0361 24.5344 21.5583 24.1658 21.834C23.7973 22.1096 23.275 22.0344 22.9994 21.6658C22.7131 21.2831 22.3478 20.9664 21.9283 20.7372C21.5089 20.508 21.045 20.3717 20.5683 20.3376C20.0915 20.3035 19.613 20.3722 19.1651 20.5393C18.7173 20.7064 18.3106 20.9678 17.9727 21.3058L15.478 23.8005C14.8738 24.4287 14.5396 25.2686 14.5472 26.1403C14.5548 27.0143 14.9053 27.8503 15.5233 28.4683C16.1414 29.0864 16.9774 29.4369 17.8514 29.4445C18.7231 29.4521 19.563 29.1179 20.1911 28.5137L21.6107 27.0941C21.9362 26.7686 22.4638 26.7686 22.7893 27.0941C23.1147 27.4195 23.1147 27.9472 22.7893 28.2726L21.3643 29.6976L21.3539 29.7077C20.4109 30.6185 19.1479 31.1225 17.8369 31.1111C16.5259 31.0997 15.2719 30.5739 14.3448 29.6468C13.4178 28.7198 12.892 27.4657 12.8806 26.1548C12.8692 24.8438 13.3731 23.5808 14.2839 22.6377L14.2941 22.6274L16.794 20.1275C16.7939 20.1276 16.794 20.1275 16.794 20.1275C17.3008 19.6205 17.9109 19.2283 18.5826 18.9777Z" fill="#883FFF"/>
</g>
<defs>
<clipPath id="clip0_325_2443">
<rect width="20" height="20" fill="white" transform="translate(12 12)"/>
</clipPath>
</defs>
</svg>
