<svg width="60" height="60" viewBox="0 0 60 60" fill="none" xmlns="http://www.w3.org/2000/svg">
<circle cx="30" cy="30" r="30" fill="#DCCFFF"/>
<path d="M31.2386 18.9383L31.2375 18.9215L31.2352 18.9049C31.1274 18.111 30.4477 17.5 29.6248 17.5C28.7272 17.5 27.9999 18.228 28.0001 19.1253C28.0001 19.1253 28.0001 19.1253 28.0001 19.1253L28.0018 29.5H17.6284H17.6117L17.5951 29.5011L17.4424 29.5113L17.4254 29.5124L17.4085 29.5147C16.6149 29.6225 16.0034 30.3019 16.0034 31.125C16.0034 32.0224 16.7309 32.75 17.6284 32.75H28.0021L28.0049 43.1242L28.0049 43.1411L28.0061 43.1579L28.0164 43.3106L28.0176 43.3274L28.0198 43.3441C28.1276 44.1379 28.8073 44.749 29.6302 44.749C30.5279 44.749 31.2551 44.0208 31.2549 43.1235L31.2521 32.75H41.6316H41.6482L41.6649 32.7489L41.8176 32.7387L41.8346 32.7376L41.8515 32.7353C42.645 32.6275 43.2566 31.9481 43.2566 31.125C43.2566 30.2276 42.529 29.5 41.6316 29.5H31.2518L31.2501 19.1247L31.2501 19.1078L31.249 19.091L31.2386 18.9383Z" fill="#883FFF" stroke="#883FFF"/>
</svg>
