<svg width="48" height="48" viewBox="0 0 48 48" fill="none" xmlns="http://www.w3.org/2000/svg">
<circle cx="24" cy="24" r="24" fill="#E6E8F0"/>
<path fill-rule="evenodd" clip-rule="evenodd" d="M24.7046 15.5915C25.7333 14.5979 27.1112 14.0481 28.5413 14.0606C29.9715 14.073 31.3396 14.6466 32.3509 15.658C33.3622 16.6693 33.9358 18.0373 33.9483 19.4675C33.9607 20.8977 33.4109 22.2755 32.4173 23.3042L32.4062 23.3155L29.6791 26.0427C29.1261 26.5958 28.4607 27.0236 27.7278 27.297C26.995 27.5703 26.212 27.6829 25.4318 27.627C24.6516 27.5712 23.8926 27.3482 23.2062 26.9731C22.5198 26.5981 21.9221 26.0799 21.4536 25.4536C21.1529 25.0515 21.235 24.4818 21.6371 24.1811C22.0391 23.8804 22.6088 23.9625 22.9096 24.3645C23.2219 24.7821 23.6204 25.1276 24.078 25.3776C24.5356 25.6276 25.0416 25.7762 25.5617 25.8135C26.0818 25.8507 26.6038 25.7757 27.0924 25.5935C27.5809 25.4112 28.0246 25.126 28.3932 24.7573L28.3933 24.7571L31.1147 22.0358C31.7738 21.3505 32.1384 20.4343 32.1302 19.4833C32.1219 18.5299 31.7394 17.6178 31.0652 16.9436C30.391 16.2694 29.479 15.887 28.5255 15.8787C27.5742 15.8704 26.6575 16.2353 25.9722 16.895L24.4135 18.4447C24.0574 18.7986 23.4818 18.797 23.1278 18.4409C22.7738 18.0849 22.7755 17.5093 23.1316 17.1553L24.6952 15.6007L24.7046 15.5915Z" fill="#7A7C89"/>
<path fill-rule="evenodd" clip-rule="evenodd" d="M20.2719 20.7029C21.0047 20.4296 21.7878 20.317 22.5679 20.3729C23.3481 20.4288 24.1071 20.6518 24.7935 21.0268C25.4799 21.4018 26.0776 21.92 26.5461 22.5463C26.8468 22.9484 26.7647 23.5181 26.3627 23.8188C25.9606 24.1196 25.3909 24.0374 25.0902 23.6354C24.7778 23.2178 24.3794 22.8723 23.9218 22.6223C23.4642 22.3723 22.9582 22.2237 22.4381 22.1864C21.918 22.1492 21.3959 22.2242 20.9074 22.4065C20.4188 22.5887 19.9752 22.8739 19.6065 23.2427L16.885 25.9642C16.2259 26.6494 15.8613 27.5657 15.8696 28.5166C15.8779 29.47 16.2603 30.3821 16.9345 31.0563C17.6087 31.7305 18.5208 32.1129 19.4742 32.1212C20.4252 32.1295 21.3414 31.7649 22.0267 31.1058L23.5753 29.5571C23.9303 29.2021 24.5059 29.2021 24.861 29.5571C25.216 29.9122 25.216 30.4878 24.861 30.8428L23.3064 32.3973L23.2952 32.4084C22.2664 33.402 20.8886 33.9518 19.4584 33.9393C18.0283 33.9269 16.6602 33.3533 15.6489 32.342C14.6376 31.3306 14.0639 29.9626 14.0515 28.5324C14.039 27.1022 14.5888 25.7244 15.5824 24.6957L15.5935 24.6844L18.3207 21.9572C18.3207 21.9572 18.3206 21.9573 18.3207 21.9572C18.8736 21.4041 19.5391 20.9763 20.2719 20.7029Z" fill="#7A7C89"/>
</svg>
