<svg width="74" height="74" viewBox="0 0 74 74" fill="none" xmlns="http://www.w3.org/2000/svg">
<mask id="path-1-outside-1_514_2919" maskUnits="userSpaceOnUse" x="4.22217" y="2.1665" width="68" height="68" fill="black">
<rect fill="white" x="4.22217" y="2.1665" width="68" height="68"/>
<path fill-rule="evenodd" clip-rule="evenodd" d="M13.0649 43.1817H13.1425V52.9058C13.1425 59.6988 18.6498 65.2061 25.4428 65.2061H35.1476V65.2638H40.3367V65.2061H50.0411C56.8341 65.2061 62.3414 59.6988 62.3414 52.9058V43.1817H62.4183V38.1464C65.1007 38.1053 67.2617 35.9177 67.2617 33.2267L67.2606 33.2255C67.2606 27.7921 62.8557 23.386 57.421 23.386H53.1453C55.9612 20.9045 57.5283 17.2987 57.421 13.5464C57.421 12.1881 56.3198 11.0869 54.9614 11.0869C53.6031 11.0869 52.5018 12.1881 52.5018 13.5464C52.5018 19.9958 46.6682 22.2306 42.2333 22.9951C43.8708 20.0927 44.8567 16.8686 45.1219 13.5464C45.1219 9.47018 41.8182 6.1665 37.742 6.1665C33.6657 6.1665 30.362 9.47018 30.3609 13.5476C30.6272 16.8697 31.612 20.0938 33.2494 22.9962C28.8134 22.2317 22.9809 19.9981 22.9809 13.5476C22.9809 12.1892 21.8797 11.088 20.5213 11.088C19.1629 11.088 18.0617 12.1892 18.0617 13.5476C17.9545 17.2998 19.5216 20.9045 22.3375 23.3871H18.0617C12.6282 23.3871 8.22217 27.7921 8.22217 33.2267C8.22217 35.9187 10.3839 38.105 13.0649 38.1464V43.1817ZM35.2824 13.5464C35.5799 16.1606 36.417 18.6847 37.742 20.9587C39.0669 18.6859 39.9052 16.1617 40.2015 13.5464C40.2015 12.1881 39.1003 11.0869 37.742 11.0869C36.3836 11.0869 35.2824 12.1881 35.2824 13.5464Z"/>
</mask>
<path fill-rule="evenodd" clip-rule="evenodd" d="M13.0649 43.1817H13.1425V52.9058C13.1425 59.6988 18.6498 65.2061 25.4428 65.2061H35.1476V65.2638H40.3367V65.2061H50.0411C56.8341 65.2061 62.3414 59.6988 62.3414 52.9058V43.1817H62.4183V38.1464C65.1007 38.1053 67.2617 35.9177 67.2617 33.2267L67.2606 33.2255C67.2606 27.7921 62.8557 23.386 57.421 23.386H53.1453C55.9612 20.9045 57.5283 17.2987 57.421 13.5464C57.421 12.1881 56.3198 11.0869 54.9614 11.0869C53.6031 11.0869 52.5018 12.1881 52.5018 13.5464C52.5018 19.9958 46.6682 22.2306 42.2333 22.9951C43.8708 20.0927 44.8567 16.8686 45.1219 13.5464C45.1219 9.47018 41.8182 6.1665 37.742 6.1665C33.6657 6.1665 30.362 9.47018 30.3609 13.5476C30.6272 16.8697 31.612 20.0938 33.2494 22.9962C28.8134 22.2317 22.9809 19.9981 22.9809 13.5476C22.9809 12.1892 21.8797 11.088 20.5213 11.088C19.1629 11.088 18.0617 12.1892 18.0617 13.5476C17.9545 17.2998 19.5216 20.9045 22.3375 23.3871H18.0617C12.6282 23.3871 8.22217 27.7921 8.22217 33.2267C8.22217 35.9187 10.3839 38.105 13.0649 38.1464V43.1817ZM35.2824 13.5464C35.5799 16.1606 36.417 18.6847 37.742 20.9587C39.0669 18.6859 39.9052 16.1617 40.2015 13.5464C40.2015 12.1881 39.1003 11.0869 37.742 11.0869C36.3836 11.0869 35.2824 12.1881 35.2824 13.5464Z" fill="#FFDF8B"/>
<path d="M13.1425 43.1817H17.1425V39.1817H13.1425V43.1817ZM13.0649 43.1817H9.06494V47.1817H13.0649V43.1817ZM35.1476 65.2061H39.1476V61.2061H35.1476V65.2061ZM35.1476 65.2638H31.1476V69.2638H35.1476V65.2638ZM40.3367 65.2638V69.2638H44.3367V65.2638H40.3367ZM40.3367 65.2061V61.2061H36.3367V65.2061H40.3367ZM62.3414 43.1817V39.1817H58.3414V43.1817H62.3414ZM62.4183 43.1817V47.1817H66.4183V43.1817H62.4183ZM62.4183 38.1464L62.357 34.1469L58.4183 34.2073V38.1464H62.4183ZM67.2617 33.2267H71.2617V31.566L70.0855 30.3936L67.2617 33.2267ZM67.2606 33.2255H63.2606V34.8863L64.4368 36.0586L67.2606 33.2255ZM53.1453 23.386L50.5007 20.385L42.5562 27.386H53.1453V23.386ZM57.421 13.5464H53.421V13.6036L53.4227 13.6607L57.421 13.5464ZM42.2333 22.9951L38.7495 21.0296L34.6093 28.3684L42.9129 26.9369L42.2333 22.9951ZM45.1219 13.5464L49.1092 13.8648L49.1219 13.7059V13.5464H45.1219ZM30.3609 13.5476L26.3609 13.5465L26.3608 13.7071L26.3736 13.8673L30.3609 13.5476ZM33.2494 22.9962L32.5701 26.9381L40.8732 28.3691L36.7332 21.0308L33.2494 22.9962ZM18.0617 13.5476L22.0601 13.6619L22.0617 13.6048V13.5476H18.0617ZM22.3375 23.3871V27.3871H32.9228L24.9828 20.3868L22.3375 23.3871ZM13.0649 38.1464H17.0649V34.2078L13.1268 34.1469L13.0649 38.1464ZM37.742 20.9587L34.2858 22.9724L37.7411 28.9026L41.1976 22.9732L37.742 20.9587ZM35.2824 13.5464H31.2824V13.7733L31.308 13.9988L35.2824 13.5464ZM40.2015 13.5464L44.1761 13.9968L44.2015 13.7724V13.5464H40.2015ZM13.1425 39.1817H13.0649V47.1817H13.1425V39.1817ZM17.1425 52.9058V43.1817H9.14252V52.9058H17.1425ZM25.4428 61.2061C20.8589 61.2061 17.1425 57.4896 17.1425 52.9058H9.14252C9.14252 61.9079 16.4407 69.2061 25.4428 69.2061V61.2061ZM35.1476 61.2061H25.4428V69.2061H35.1476V61.2061ZM31.1476 65.2061V65.2638H39.1476V65.2061H31.1476ZM35.1476 69.2638H40.3367V61.2638H35.1476V69.2638ZM44.3367 65.2638V65.2061H36.3367V65.2638H44.3367ZM50.0411 61.2061H40.3367V69.2061H50.0411V61.2061ZM58.3414 52.9058C58.3414 57.4896 54.625 61.2061 50.0411 61.2061V69.2061C59.0432 69.2061 66.3414 61.9079 66.3414 52.9058H58.3414ZM58.3414 43.1817V52.9058H66.3414V43.1817H58.3414ZM62.4183 39.1817H62.3414V47.1817H62.4183V39.1817ZM58.4183 38.1464V43.1817H66.4183V38.1464H58.4183ZM63.2617 33.2267C63.2617 33.7297 62.8572 34.1392 62.357 34.1469L62.4796 42.146C67.3442 42.0714 71.2617 38.1058 71.2617 33.2267H63.2617ZM64.4368 36.0586L64.438 36.0598L70.0855 30.3936L70.0843 30.3924L64.4368 36.0586ZM57.421 27.386C60.6462 27.386 63.2606 30.0009 63.2606 33.2255H71.2606C71.2606 25.5832 65.0651 19.386 57.421 19.386V27.386ZM53.1453 27.386H57.421V19.386H53.1453V27.386ZM53.4227 13.6607C53.496 16.2249 52.425 18.6892 50.5007 20.385L55.7899 26.387C59.4974 23.1198 61.5606 18.3724 61.4194 13.4322L53.4227 13.6607ZM54.9614 15.0869C54.1107 15.0869 53.421 14.3972 53.421 13.5464H61.421C61.421 9.97893 58.5289 7.08685 54.9614 7.08685V15.0869ZM56.5018 13.5464C56.5018 14.3972 55.8122 15.0869 54.9614 15.0869V7.08685C51.3939 7.08685 48.5018 9.97895 48.5018 13.5464H56.5018ZM42.9129 26.9369C45.3925 26.5095 48.6522 25.6192 51.3798 23.6401C54.2888 21.5294 56.5018 18.217 56.5018 13.5464H48.5018C48.5018 15.3253 47.7981 16.3549 46.6816 17.165C45.3836 18.1068 43.5091 18.7162 41.5538 19.0532L42.9129 26.9369ZM41.1346 13.2281C40.9156 15.9709 40.1016 18.633 38.7495 21.0296L45.7172 24.9605C47.6399 21.5524 48.7977 17.7663 49.1092 13.8648L41.1346 13.2281ZM37.742 10.1665C39.6091 10.1665 41.1219 11.6793 41.1219 13.5464H49.1219C49.1219 7.26105 44.0274 2.1665 37.742 2.1665V10.1665ZM34.3609 13.5487C34.3614 11.6789 35.8754 10.1665 37.742 10.1665V2.1665C31.4559 2.1665 26.3626 7.26142 26.3609 13.5465L34.3609 13.5487ZM36.7332 21.0308C35.3816 18.6349 34.5681 15.9726 34.3481 13.2279L26.3736 13.8673C26.6863 17.7669 27.8424 21.5527 29.7656 24.9617L36.7332 21.0308ZM18.9809 13.5476C18.9809 18.2183 21.1932 21.5308 24.1026 23.6418C26.8302 25.6208 30.0902 26.5107 32.5701 26.9381L33.9288 19.0544C31.9726 18.7172 30.0983 18.1081 28.8007 17.1666C27.6848 16.357 26.9809 15.3275 26.9809 13.5476H18.9809ZM20.5213 15.088C19.6705 15.088 18.9809 14.3984 18.9809 13.5476H26.9809C26.9809 9.98009 24.0888 7.08801 20.5213 7.08801V15.088ZM22.0617 13.5476C22.0617 14.3984 21.3721 15.088 20.5213 15.088V7.08801C16.9538 7.08801 14.0617 9.98009 14.0617 13.5476H22.0617ZM24.9828 20.3868C23.0574 18.6892 21.9868 16.2256 22.0601 13.6619L14.0633 13.4333C13.9221 18.3741 15.9857 23.1197 19.6922 26.3875L24.9828 20.3868ZM18.0617 27.3871H22.3375V19.3871H18.0617V27.3871ZM12.2222 33.2267C12.2222 30.0015 14.8371 27.3871 18.0617 27.3871V19.3871C10.4194 19.3871 4.22217 25.5826 4.22217 33.2267H12.2222ZM13.1268 34.1469C12.6265 34.1392 12.2222 33.7296 12.2222 33.2267H4.22217C4.22217 38.1077 8.14136 42.0708 13.0031 42.146L13.1268 34.1469ZM17.0649 43.1817V38.1464H9.06494V43.1817H17.0649ZM41.1981 18.9449C40.1525 17.1504 39.4916 15.158 39.2567 13.0941L31.308 13.9988C31.6681 17.1632 32.6816 20.2191 34.2858 22.9724L41.1981 18.9449ZM36.227 13.0961C35.9932 15.1588 35.332 17.1504 34.2863 18.9442L41.1976 22.9732C42.8018 20.2214 43.8171 17.1646 44.1761 13.9968L36.227 13.0961ZM37.742 15.0869C36.8912 15.0869 36.2015 14.3972 36.2015 13.5464H44.2015C44.2015 9.97894 41.3095 7.08685 37.742 7.08685V15.0869ZM39.2824 13.5464C39.2824 14.3972 38.5927 15.0869 37.742 15.0869V7.08685C34.1744 7.08685 31.2824 9.97894 31.2824 13.5464H39.2824Z" fill="#883FFF" mask="url(#path-1-outside-1_514_2919)"/>
<path d="M13.1425 43.0662H35.2824V65.2061H25.4428C18.6498 65.2061 13.1425 59.6988 13.1425 52.9058V43.0662ZM67.2617 33.2267C67.2617 35.9434 65.0593 38.147 62.3414 38.147H40.2015V28.2014C39.3748 28.2648 38.5514 28.3075 37.742 28.3075C36.9325 28.3075 36.108 28.266 35.2824 28.2014V38.147H13.1425C10.4258 38.147 8.22217 35.9446 8.22217 33.2267C8.22217 27.7921 12.6282 23.3871 18.0617 23.3871H22.3375C19.5216 20.9045 17.9545 17.2998 18.0617 13.5476C18.0617 12.1892 19.1629 11.088 20.5213 11.088C21.8797 11.088 22.9809 12.1892 22.9809 13.5476C22.9809 19.9981 28.8134 22.2317 33.2494 22.9962C31.612 20.0938 30.6272 16.8697 30.3609 13.5476C30.362 9.47018 33.6657 6.1665 37.742 6.1665C41.8182 6.1665 45.1219 9.47018 45.1219 13.5464C44.8567 16.8686 43.8708 20.0927 42.2333 22.9951C46.6682 22.2306 52.5018 19.9958 52.5018 13.5464C52.5018 12.1881 53.6031 11.0869 54.9614 11.0869C56.3198 11.0869 57.421 12.1881 57.421 13.5464C57.5283 17.2987 55.9612 20.9045 53.1453 23.386H57.421C62.8557 23.386 67.2606 27.7921 67.2606 33.2255L67.2617 33.2267ZM35.2824 13.5464C35.5799 16.1606 36.417 18.6847 37.742 20.9587C39.0669 18.6859 39.9052 16.1617 40.2015 13.5464C40.2015 12.1881 39.1003 11.0869 37.742 11.0869C36.3836 11.0869 35.2824 12.1881 35.2824 13.5464ZM40.2015 65.2061H50.0411C56.8341 65.2061 62.3414 59.6988 62.3414 52.9058V43.0662H40.2015V65.2061Z" fill="#FFCC49"/>
<path d="M62.4183 37.9927H13.0649V43.1817H62.4183V37.9927Z" fill="#FFDF8B"/>
<path d="M40.3367 65.2638V27.9604H35.1476V65.2638H40.3367Z" fill="#FFDF8B"/>
</svg>
