<svg width="74" height="74" viewBox="0 0 74 74" fill="none" xmlns="http://www.w3.org/2000/svg">
<path d="M51.1874 15.5413L51.1645 15.5648C57.97 21.845 61.556 27.7661 63.4388 32.291C64.4484 34.7174 64.9627 36.7288 65.2244 38.1614C65.3552 38.8774 65.4228 39.4483 65.4577 39.8537C65.4751 40.0564 65.4844 40.2177 65.4893 40.3351C65.4916 40.3914 65.493 40.4377 65.4938 40.4735C66.0524 49.2206 63.8347 56.5664 57.9185 62.5489M51.1874 15.5413L17.8745 20.0349L17.839 20.069L17.8361 20.0717C14.0862 23.6737 10.9676 27.4343 9.30012 32.2799L9.29979 32.2808C9.02237 33.0883 8.03687 36.2397 7.98926 40.531L7.98925 40.5317C7.98163 41.2418 7.99201 44.7153 9.07249 49.0655C10.1508 53.4071 12.3288 58.7561 16.7523 63.0667L16.7524 63.0668C27.4753 73.5147 47.017 73.5735 57.9185 62.5489M51.1874 15.5413L49.5877 14.152M51.1874 15.5413L49.5877 14.152M57.9185 62.5489L56.4965 61.1426L57.9185 62.5489ZM49.5877 14.152C46.5047 11.4744 43.3842 8.76326 40.2322 5.54336L49.5877 14.152ZM33.7391 5.55208C29.3694 10.0387 26.6763 16.1324 25.0483 21.2744L40.2313 5.5425L40.2153 5.52615L40.2119 5.52264C38.4231 3.70203 35.5105 3.71721 33.7391 5.55208Z" fill="#FF5B45" stroke="#883FFF" stroke-width="4"/>
<path d="M49.9828 50.9195C49.9828 46.2914 46.9681 43.6013 41.1897 38.8578C39.8841 37.7751 38.474 36.6282 37.0195 35.3516C35.3596 36.8269 33.7809 38.1249 32.3338 39.3194C26.5665 44.0296 24.0403 46.3354 24.0403 50.9195C24.0427 57.8463 29.8519 63.4595 37.0159 63.456C44.1761 63.4536 49.9791 57.8415 49.9816 50.9195H49.9828Z" fill="#FFA284"/>
</svg>
