<svg width="74" height="74" viewBox="0 0 74 74" fill="none" xmlns="http://www.w3.org/2000/svg">
<path d="M48.2762 15.6622C45.1987 12.9894 42.019 10.2281 38.8021 6.94179L38.7853 6.92458C37.7851 5.9066 36.1658 5.91521 35.1752 6.94425C29.3941 12.8775 26.6605 21.9889 25.4764 27.455C24.5675 26.0153 23.8919 24.4342 23.4784 22.7733L23.4652 22.7204C22.9771 20.8086 20.6678 20.1275 19.2589 21.4787L19.2216 21.5143C15.5623 25.0293 12.7072 28.5258 11.1913 32.9309C10.9569 33.6132 10.0336 36.5442 9.98914 40.5534C9.97591 41.7853 10.0144 53.7084 18.1481 61.6346C28.0886 71.3201 46.372 71.3816 56.4965 61.1428C61.9494 55.6288 64.0352 48.8638 63.4947 40.5534C63.4947 40.5534 63.4947 28.8665 48.275 15.6634L48.2762 15.6622Z" fill="#FF5B45"/>
<path d="M49.9828 50.9195C49.9828 46.2914 46.9681 43.6013 41.1897 38.8578C39.8841 37.7751 38.474 36.6282 37.0195 35.3516C35.3596 36.8269 33.7809 38.1249 32.3338 39.3194C26.5665 44.0296 24.0403 46.3354 24.0403 50.9195C24.0427 57.8463 29.8519 63.4595 37.0159 63.456C44.1761 63.4536 49.9791 57.8415 49.9816 50.9195H49.9828Z" fill="#FFA284"/>
</svg>
